<svg width="46" height="21" viewBox="0 0 46 21" xmlns="http://www.w3.org/2000/svg">
  <title>Nest Logo</title>
  <path
    d="M33.653 14.12c.867.382 1.385 1.102 1.385 1.924 0 1.088-.81 1.736-2.17 1.736-1.443 0-2.113-1.31-2.285-1.71l-.21-.496H27.67l-.004-.004h-2.504c-.683 1.176-2.06 2.261-3.662 2.261-2.89 0-4.332-2.329-4.517-4.628h11.812V12.7c0-.954-.096-1.85-.276-2.684.338 1.07 1.11 2.177 2.725 2.962.59.29 1.48.722 2.409 1.141M21.33 6.813c2.418 0 3.602 1.72 3.945 3.47H17.23c.42-1.754 1.91-3.47 4.1-3.47m23.703.05V3.718h-2.51V0H39.44v3.718h-6.21c-2.867.002-4.948 1.99-4.948 4.73 0 .294.025.612.083.942-.977-3.491-3.553-5.672-7.011-5.672-4.231 0-7.465 3.397-7.736 7.999v-.978c0-3.872-3.055-7.02-6.81-7.02C3.055 3.718 0 6.866 0 10.738v10.065h3.12V10.74c0-2.096 1.654-3.803 3.689-3.803 2.033 0 3.688 1.707 3.688 3.803v10.065h3.12v-7.831C13.89 17.592 17.168 21 21.453 21c2.616 0 4.924-1.567 6.23-3.382.976 2.15 2.882 3.382 5.235 3.382 2.728 0 5.49-1.797 5.49-5.232 0-2.056-1.159-3.737-3.262-4.734-.269-.126-.486-.232-.694-.334l-.028-.015a50.794 50.794 0 0 0-.744-.357c-1.375-.636-2.03-1.103-2.03-2.032 0-.817.71-1.433 1.585-1.433h6.206v8.964c0 2.854 2.25 5.173 5.016 5.173v-3.178c-1.066 0-1.934-.895-1.934-1.995V6.863c1.233.002 2.184 0 2.511 0"
    fill="#7C8287" fill-rule="evenodd"/>
</svg>
